<?xml version="1.0" ?><svg id="Layer_1" style="enable-background:new 0 0 48 48;" version="1.1" viewBox="0 0 48 48" xml:space="preserve" xmlns="http://www.w3.org/2000/svg" xmlns:xlink="http://www.w3.org/1999/xlink"><style type="text/css">
	.st0{fill:#FF4676;}
	.st1{fill:#0F1C70;}
	.st2{fill:#FFE92E;}
	.st3{fill:#17D5D1;}
	.st4{fill:#FFFFFF;}
	.st5{fill:#EA2461;}
	.st6{fill:#F2F2F2;}
</style><g><g><g><g><g><g><g><g><g><g><g><g><circle class="st2" cx="24" cy="24" r="24"/></g></g></g></g></g></g></g></g></g></g><g><g><g><g><path class="st1" d="M29.8,10.6v3.8h-1.6v-3.8c0-0.2-0.2-0.4-0.4-0.4h-7.6c-0.2,0-0.4,0.2-0.4,0.4v3.8h-1.6v-3.8        c0-1.1,0.9-2,2-2h7.6C28.9,8.6,29.8,9.5,29.8,10.6z"/></g></g></g><path class="st0" d="M40.3,14v22c0,0.6-0.5,1.1-1.1,1.1H8.8c-0.6,0-1.1-0.5-1.1-1.1V14c0-0.6,0.5-1.1,1.1-1.1h30.5     C39.8,12.9,40.3,13.4,40.3,14z"/><rect class="st1" height="1.9" width="32.6" x="7.7" y="23.2"/></g></g><g><path class="st4" d="M14.9,26.7h-2.2c-0.3,0-0.5-0.2-0.5-0.5V23c0-0.3,0.2-0.5,0.5-0.5h2.2c0.3,0,0.5,0.2,0.5,0.5v3.3    C15.4,26.5,15.2,26.7,14.9,26.7z"/><path class="st4" d="M35.3,26.7h-2.2c-0.3,0-0.5-0.2-0.5-0.5V23c0-0.3,0.2-0.5,0.5-0.5h2.2c0.3,0,0.5,0.2,0.5,0.5v3.3    C35.7,26.5,35.5,26.7,35.3,26.7z"/></g></g></svg>